<?xml version="1.0" encoding="utf-8"?>
<!-- Generator: Adobe Illustrator 23.0.3, SVG Export Plug-In . SVG Version: 6.00 Build 0)  -->
<svg version="1.1" id="Capa_1" xmlns="http://www.w3.org/2000/svg" xmlns:xlink="http://www.w3.org/1999/xlink" x="0px" y="0px"
	 viewBox="0 0 1200 1200" enable-background="new 0 0 1200 1200" xml:space="preserve">
<g>
	<path fill="#A9BDD1" d="M1118.445,977.132c4.833,3.888,12.308,11.084,10.483,16.605c-1.976,5.972-9.537,10.375-14.521,13.383
		c-19.913,12.115-43.134,19.075-65.366,25.519c-43.069,12.459-87.921,22.877-132.666,27.109
		c-98.919,9.344-198.247,14.371-297.596,15.101c-89.554,0.666-179.236-1.117-268.661-5.8
		c-53.144-2.771-106.373-6.509-159.152-13.404c-36.625-4.812-77.825-9.323-111.228-26.357c-7.282-3.716-17.142-9.387-18.237-17.679
		c-2.277-17.528,20.213-36.217,34.606-44.659c25.004-14.671,54.11-22.168,82.336-27.71c31.684-6.229,63.863-9.366,96.062-11.192
		c12.416-0.709,24.853-1.117,37.269-1.289c0.021,3.63,0,7.282,0.021,10.912c0.021,8.012,0.795,16.025,0.945,24.037
		c0.107,5.027-2.793,15.015,0.172,19.075c1.31,1.804,3.652,2.535,5.843,2.964c10.311,1.998,21.782,0.451,32.243,0.322
		c8.764-0.129,17.528-0.172,26.293-0.365c5.091-0.129,12.609,1.074,17.399-1.59c0.537-0.301,1.031-0.644,1.504-1.031
		c5.413-4.683,3.802-14.435,4.21-20.75c0.644-10.268,0.902-20.557,0.945-30.825c2.642,0.086,5.284,0.021,7.69,0.086
		c11.17,0.344,22.34,0.473,33.51,0.558c35.25,0.279,70.5,0.301,105.75,0.301c90.971,0,181.943-1.224,272.914,0.924
		c7.175,0.15,15.015-0.516,22.104,0.558c6.423,0.967,6.272,2.943,6.251,9.409c-0.043,12.974,1.525,25.949,1.525,38.859
		c0.193,1.847,0.988,3.244,2.041,4.167c0.193,0.773,0.559,1.547,1.181,2.234c9.559,10.504,29.364,9.709,42.145,8.635
		c8.077-0.666,16.197-1.912,24.08-3.781c5.306-1.267,14.994-2.47,17.55-7.926c0.967-2.041,0.838-4.361-0.344-6.036
		c1.439-10.762,0.666-21.953,0.687-32.737c0.021-1.59,0.021-3.179,0.021-4.747c32.629,0.558,65.366,3.265,97.544,8.764
		C1063.39,953.46,1096.191,959.195,1118.445,977.132z M1086.203,1005.981c2.921-7.54-0.73-14.908-2.599-22.168
		c-1.697-6.487-11.643-3.738-10.032,2.75c1.289,5.263,5.263,12.309,1.74,17.357c-2.427,3.437-7.411,5.327-11.17,6.681
		c-7.368,2.685-14.994,4.124-22.147,7.389c-4.941,2.234-1.096,8.678,3.372,8.034c10.783-1.589,22.319-3.609,31.641-9.666
		C1080.94,1013.8,1084.484,1010.427,1086.203,1005.981z M1001.01,1011.931c13.576-2.234,63.39-4.683,44.358-31.19
		c-3.566-4.984-9.129-8.12-14.8-10.418c-8.077-3.287-16.755-5.155-25.476-5.478c-2.556-0.086-5.564,0.172-6.917,2.341
		c-1.418,2.255-0.086,5.392,2.105,6.895c2.191,1.525,4.962,1.847,7.583,2.255c8.141,1.246,16.111,3.609,23.607,7.003
		c2.213,0.988,4.575,2.298,5.306,4.618c0.773,2.427-0.666,5.112-2.75,6.595c-2.105,1.461-4.683,1.976-7.196,2.449
		c-64.292,11.943-130.109,15.724-195.347,11.17c-20.235-1.396-42.983-1.439-61.972-9.258c-2.47-1.01-7.712-2.921-8.141-6.058
		c-0.644-4.511,6.981-9.387,10.139-11.041c13.275-6.938,29.429-4.941,43.391-9.666c4.876-1.654,4.468-10.053-1.289-9.559
		c-15.38,1.289-32.887,1.246-47,8.227c-8.7,4.318-18.989,14.177-16.025,25.004c4.984,18.194,37.355,19.268,52.07,20.772
		c42.704,4.339,85.451,5.907,128.327,3.265C954.439,1018.396,977.832,1015.776,1001.01,1011.931z M830.237,1047.482
		c5.95-0.129,5.972-9.172,0-9.28c-32.973-0.516-65.474-0.129-98.103-5.671c-14.521-2.47-28.999-6.337-40.985-15.294
		c-13.275-9.924-5.284-18.645,2.277-29.708c3.222-4.704-3.48-8.614-7.282-5.607c-9.172,7.239-17.894,19.505-12.888,31.577
		c5.155,12.416,21.373,19.655,33.145,23.758C745.216,1050.811,789.831,1048.255,830.237,1047.482z M603.872,1026.645
		c17.937-11.729,22.104-24.488,15.466-44.53c-1.289-3.867-7.153-2.32-6.165,1.697c2.127,8.678,4.253,17.808-2.019,25.219
		c-6.724,7.926-18.495,13.103-27.925,16.798c-16.626,6.53-34.885,8.227-51.21,15.466c-4.898,2.148-1.096,8.678,3.351,7.969
		C558.354,1045.591,584.195,1039.534,603.872,1026.645z M567.87,1006.131c11.127-7.604,17.399-20.836,8.42-32.501
		c-8.571-11.127-23.65-15.359-36.281-19.999c-5.413-1.998-9.194,6.852-3.952,9.387c8.657,4.167,17.421,8.055,25.197,13.791
		c13.039,9.623,2.277,18.882-9.495,23.242c-13.017,4.833-27.324,6.358-40.878,9.043c-19.247,3.824-38.666,6.745-58.17,8.915
		c-37.119,4.146-74.474,5.606-111.808,5.585c-18.86,0-37.742-0.236-56.581-1.01c-18.13-0.752-35.68-4.382-53.573-6.874
		c-5.886-0.795-41.802-3.609-35.529-14.392c2.234-3.867,11.213-6.573,15.123-8.141c4.447-1.783,9-3.201,13.49-4.898
		c5.155-1.933,3.093-10.16-2.32-8.399c-12.717,4.103-54.304,14.5-32.973,34.82c11.514,10.955,30.224,10.332,44.895,12.867
		c23.779,4.124,46.85,6.702,70.994,7.325c48.783,1.267,97.716,0.601,146.263-4.361c23.35-2.363,46.42-5.972,69.426-10.461
		C536.057,1016.936,554.079,1015.539,567.87,1006.131z M501.494,973.437c0.859-11.686-11.535-18.194-21.438-19.526
		c-4.898-0.644-9.086,6.101-3.716,8.85c3.007,1.525,9.709,3.437,11.471,6.509c4.425,7.669-6.315,12.158-11.106,13.92
		c-7.497,2.728-15.531,3.974-23.285,5.692c-23.844,5.306-47.859,7.153-72.24,6.788c-22.512-0.344-44.981-1.998-67.385-4.124
		c-9.602-0.924-19.225-1.461-28.827-2.384c-5.521-0.516-13.619-0.623-16.175-6.101c-1.804-3.888-1.482-3.48,1.718-5.864
		c2.47-1.847,4.79-2.986,7.755-4.038c5.735-2.062,3.501-10.569-2.535-9.194c-8.7,1.955-20.471,7.239-21.094,17.657
		c-0.709,11.686,13.254,16.626,22.512,18.173c15.273,2.556,31.298,2.9,46.721,4.318c18.366,1.675,36.797,2.857,55.249,3.244
		c32.887,0.666,67.879-1.804,99.37-12.223C488.369,991.868,500.656,985.187,501.494,973.437z M178.508,978.829
		c5.907-2.041,3.544-11.17-2.599-9.452c-13.683,3.802-26.679,9.065-39.16,15.896c-7.175,3.909-16.669,8.206-19.633,16.476
		c-6.616,18.366,18.538,20.106,30.159,18.882c4.812-0.516,6.122-7.024,1.181-8.635c-4.017-1.31-8.442-1.074-12.566-1.761
		c-1.783-0.279-7.261-0.687-8.163-2.556c-1.568-3.308,5.349-7.669,7.218-8.829C148.542,990.342,163.386,984.027,178.508,978.829z"/>
	<path fill="#D43F49" d="M961.206,319.302c-3.931,6.315-7.862,12.652-11.793,18.968c-0.301,0.516-0.644,1.031-1.117,1.375
		c-0.644,0.43-1.439,0.494-2.191,0.559c-3.888,0.301-7.776,0.601-11.643,0.902c-1.74,0.15-3.544,0.301-5.091,1.138
		c-0.709,0.365-1.375,0.924-1.847,1.59l-3.995-2.707c1.01,0,1.998-0.258,2.835-0.838c1.181-0.795,1.976-2.062,2.599-3.372
		c2.556-5.521,2.384-12.051,2.384-18.001c0,0.537,15.273,0.559,16.648,0.537C949.37,319.453,960.54,320.376,961.206,319.302z"/>
	<path d="M1139.561,114.633c6.272-1.912,11.643,4.253,10.203,10.203c-2.513,10.547-5.048,21.094-7.561,31.641
		c-1.783,7.497-2.234,22.061-10.676,25.219c-5.714,2.148-12.953,2.277-18.946,3.136c-2.084,0.301-4.167,0.559-6.251,0.859
		c-0.301,0.838-0.773,2.062-1.031,2.814c-0.752,2.255-1.719,4.404-2.664,6.595c-2.642,6.144-5.563,12.137-8.442,18.173
		c-4.404,9.194-8.786,18.366-13.189,27.56c-1.181,2.47-4.232,3.952-6.852,3.952c-10.848-0.021-21.674-0.064-32.5-0.107
		c-31.212-0.086-62.402-0.193-93.613-0.301c2.492,8.958,1.89,18.516,2.084,27.71c0.021,1.783,0.064,3.587-0.494,5.284
		c-1.181,3.523-4.812,4.425-8.141,4.575c-3.48,0.129-6.938,0.15-10.418,0.043c0.107,8.27,0.193,16.54,0.279,24.789
		c7.583-1.074,14.951-0.43,22.555-0.387c7.755,0.021,15.681-0.924,22.856,2.298c6.552,2.943-5.091,18.839-7.067,22.598
		c25.133,0.58,50.265,0.752,75.398,0.516c7.819-0.064,15.702-0.172,23.328,1.611c0.558,0.129,1.117,0.279,1.676,0.451
		c2.707,0.279,5.263,1.955,6.229,5.263c4.876,16.476,4.855,34.455,6.036,51.468c0.559,8.141-8.249,10.934-14.134,8.313
		c-8.872,2.191-19.29,0.816-28.097,0.859c-12.717,0.064-25.433,0.172-38.15,0.215c-13.425,0.043-26.851,0.043-40.277,0.043
		c-9.946,0.021-20.493,1.01-30.481-0.236c0.58,11.32-0.086,22.856-0.064,33.94c0.043,19.956,0.107,39.89,0.086,59.824
		c-0.043,19.956-0.086,39.89-0.129,59.846c-0.043,20.063-2.041,39.868-2.449,59.824c0,0.15-0.043,0.301-0.043,0.451
		c9.559,4.21,16.97,11.836,18.345,22.426c1.289,0.58,2.341,1.697,2.707,3.394c0.795,3.759,0.752,7.583,1.353,11.363
		c0.344,2.127,3.244,14.005-0.795,14.994c-4.575,1.117-9.366,1.59-14.199,1.783c2.277,11.9,1.31,25.111,1.461,37.097
		c0.15,13.469,0.129,26.958,0.193,40.427c0.15,26.228,0.279,52.478,0.558,78.706c0.279,26.958,0.279,53.895,0.258,80.854
		c0,7.175-0.021,14.349-0.021,21.524c20.579,0.043,41.071,1.181,61.564,3.372c29.429,3.179,59.223,7.497,87.427,16.755
		c19.182,6.294,53.38,19.182,55.85,43.348c1.719,16.648-16.948,27.56-29.493,34.004c-23.328,11.943-48.998,19.548-74.216,26.314
		c-51.769,13.92-103.559,22.426-156.918,26.958c-97.931,8.27-196.206,12.287-294.481,12.18
		c-97.244-0.129-194.616-2.642-291.602-9.924c-52.349-3.91-105.041-9.022-156.552-19.526c-18.71-3.824-37.591-8.292-55.356-15.466
		c-11.17-4.511-24.059-10.397-30.868-20.901c-8.184-12.588-1.869-28.57,5.929-39.826c14.65-21.137,39.525-33.145,63.025-41.651
		c59.502-21.524,126.028-26.507,188.988-26.787c0-5.821-0.021-11.664-0.021-17.507c-0.021-26.228-0.021-52.456,0.258-78.706
		c0.279-26.958,0.408-53.895,0.559-80.854c0.064-13.469-0.021-26.937,0.215-40.405c0.193-11.342-0.709-23.715,1.439-34.971
		c-4.855-0.193-9.623-0.666-14.199-1.783c-4.038-1.01-4.747-6.294-2.105-8.764c0.258-2.041,1.869-13.834,2.664-17.593
		c0.365-1.697,11.492-21.631,21.051-25.82c-0.021-0.172-0.043-0.301-0.043-0.451c-0.408-19.977-2.406-39.761-2.449-59.846
		c-0.043-19.934-0.086-39.868-0.129-59.824c-0.043-19.934,0.043-39.89,0.086-59.824c0-2.642-0.537-33.467-0.172-33.467
		l-35.873-0.129c-22.984-0.086-45.969-0.172-68.953-0.258c-9.688-0.043-19.354-0.129-29.021,0.172
		c-5.542,0.172-13.318-0.086-13.361-7.432c-0.043-9.495-0.344-19.011-0.279-28.505c0.064-7.948-2.535-16.862,1.117-24.381
		c0.773-1.59,2.019-3.029,3.695-3.63c2.47-0.902,5.392,0.408,7.948,0.516c2.878,0.107,5.757-0.322,8.614-0.537
		c3.91-0.301,7.841,0.301,11.75,0.258c9.774-0.064,19.548-0.129,29.321-0.215c9.774-0.064,19.548-0.15,29.321-0.15
		c5.607,0,15.445,2.964,20.256-0.73c-2.105-4.167-17.657-23.113-9.967-26.572c7.175-3.222,15.101-2.255,22.856-2.298
		c5.993-0.021,12.631-0.752,18.796-0.086c0.021-1.418,0.021-2.835,0.021-4.253c-0.043-6.745-0.172-13.554,0.236-20.299
		c-3.566-0.172-7.132-0.365-10.697-0.559c-4.081-0.215-4.49-3.115-4.081-6.595c0.236-2.105-0.945-26.164,0.687-26.164
		c-8.528-0.021-17.077-0.021-25.627-0.043c-17.743-0.021-35.465,0.752-53.187,0.816c-9.108,0.043-18.216-0.086-27.302-0.623
		c-4.404-0.258-8.786-0.601-13.146-1.074c-5.091-0.559-7.776-0.279-10.848-4.919c-2.75-5.478-5.607-10.332-6.638-16.476
		c-1.138-6.895-1.697-13.941-2.191-20.901c-0.107-1.418-0.73-20.45-0.795-20.471c-9.795-1.804-19.44-4.081-28.655-7.282
		c-9.989-3.48-9.43-13.447-11.256-22.619c-1.89-9.43-3.781-18.882-5.671-28.333c-1.138-5.628,3.802-12.588,10.203-10.203
		c18.839,6.981,39.783,9.43,59.502,12.437c35.465,5.37,71.145,9.323,106.824,12.91c81.949,8.206,164.2,13.92,246.471,17.528
		c81.971,3.587,163.405,2.234,245.311-2.513c71.295-4.103,142.375-8.335,213.348-16.605c32.78-3.824,65.495-8.12,98.124-13.039
		C1110.068,119.874,1125.684,118.886,1139.561,114.633z M1122.677,166.874c2.621-10.977,5.241-21.953,7.862-32.952
		c-13.769,2.707-28.29,3.824-41.78,5.8c-38.751,5.649-77.61,10.59-116.555,14.8c-71.08,7.69-142.418,11.428-213.777,15.208
		c-48.633,2.578-97.072,3.458-145.554,2.9c-35.787-0.387-71.574-1.568-107.49-3.415c-81.348-4.189-162.653-10.268-243.614-19.161
		c-29.751-3.287-59.48-6.895-89.017-11.621c-12.502-2.019-25.455-3.845-37.892-7.067c1.718,8.657,3.458,17.314,5.177,25.97
		c16.669,5.392,34.713,7.69,51.855,10.354c65.624,10.139,132,16.025,198.161,21.202c47.666,3.738,95.525,7.647,143.385,9.151
		c1.396-10.526,15.488-14.607,24.445-16.497c17.936-3.802,36.625-4.232,54.948-4.06c2.127,0.021,4.232,0.064,6.337,0.086
		c19.719,0.322,39.396,1.59,59.072,2.921c16.197,1.096,37.892-1.181,40.341,19.741c0.021,0.172,0,0.301,0,0.473
		c28.57-1.654,57.161-2.921,85.709-4.769c67.192-4.318,134.32-7.905,201.318-14.8c28.441-2.921,56.838-6.186,85.172-9.903
		C1101.089,169.882,1112.323,169.28,1122.677,166.874z M1128.928,993.736c1.826-5.521-5.65-12.717-10.483-16.605
		c-22.254-17.937-55.055-23.672-82.443-28.355c-32.178-5.499-64.915-8.206-97.544-8.764c0,1.568,0,3.158-0.021,4.747
		c-0.021,10.783,0.752,21.975-0.687,32.737c1.181,1.675,1.31,3.995,0.344,6.036c-2.556,5.456-12.244,6.659-17.55,7.926
		c-7.883,1.869-16.003,3.115-24.08,3.781c-12.781,1.074-32.586,1.869-42.145-8.635c-0.623-0.687-0.988-1.461-1.181-2.234
		c-1.053-0.924-1.847-2.32-2.041-4.167c0-12.91-1.568-25.884-1.525-38.859c0.021-6.466,0.172-8.442-6.251-9.409
		c-7.089-1.074-14.929-0.408-22.104-0.558c-90.971-2.148-181.943-0.924-272.914-0.924c-35.25,0-70.5-0.021-105.75-0.301
		c-11.17-0.086-22.34-0.215-33.51-0.558c-2.406-0.064-5.048,0-7.69-0.086c-0.043,10.268-0.301,20.557-0.945,30.825
		c-0.408,6.315,1.203,16.068-4.21,20.75c-0.473,0.387-0.967,0.73-1.504,1.031c-4.79,2.664-12.309,1.461-17.399,1.59
		c-8.764,0.193-17.528,0.236-26.293,0.365c-10.461,0.129-21.932,1.675-32.243-0.322c-2.191-0.43-4.532-1.16-5.843-2.964
		c-2.964-4.06-0.064-14.048-0.172-19.075c-0.15-8.012-0.924-16.025-0.945-24.037c-0.021-3.63,0-7.282-0.021-10.912
		c-12.416,0.172-24.853,0.58-37.269,1.289c-32.2,1.826-64.378,4.962-96.062,11.192c-28.226,5.542-57.332,13.039-82.336,27.71
		c-14.392,8.442-36.883,27.13-34.606,44.659c1.096,8.292,10.955,13.963,18.237,17.679c33.403,17.034,74.603,21.545,111.228,26.357
		c52.778,6.895,106.008,10.633,159.152,13.404c89.425,4.683,179.107,6.466,268.661,5.8c99.349-0.73,198.676-5.757,297.596-15.101
		c44.745-4.232,89.597-14.65,132.666-27.109c22.233-6.444,45.453-13.404,65.366-25.519
		C1119.391,1004.112,1126.952,999.708,1128.928,993.736z M1088.974,188.054c-5.972,0.773-11.943,1.525-17.915,2.255
		c-41.522,5.091-83.174,9.237-124.868,12.652c-42.876,3.501-85.794,5.435-128.735,7.755c-46.27,2.492-92.776,5.95-139.11,4.275
		c-0.064,0-0.107-0.021-0.15-0.021c0.387,4.919,0.301,10.01,0.193,14.951c0.344-0.086,0.687-0.172,1.053-0.236
		c16.97-2.084,34.778-1.096,51.876-1.224c18.409-0.129,36.818,0.021,55.227,0.043c94.215,0.107,188.408,0.086,282.623,0.365
		c3.63-7.561,7.26-15.101,10.869-22.662C1082.959,200.127,1085.837,194.026,1088.974,188.054z M1063.24,385.442
		c-0.086-13.039-1.654-26.035-1.719-39.031c-2.792,0.236-5.628,0.279-8.42,0.301c-22.362,0.236-44.702,1.074-66.999,2.492
		c-17.464,1.117-34.971,2.578-52.413,1.289c-2.878-0.215-6.509-1.181-6.895-4.038c-0.107-0.945,0.193-1.847,0.73-2.621
		c0.473-0.666,1.138-1.224,1.847-1.59c1.547-0.838,3.351-0.988,5.091-1.138c3.867-0.301,7.755-0.601,11.643-0.902
		c0.752-0.064,1.547-0.129,2.191-0.559c0.473-0.344,0.816-0.859,1.117-1.375c3.931-6.315,7.862-12.652,11.793-18.968
		c-0.666,1.074-11.836,0.15-13.211,0.15c-1.375,0.021-16.648,0-16.648-0.537c0,5.95,0.172,12.48-2.384,18.001
		c-0.623,1.31-1.418,2.578-2.599,3.372c-0.838,0.58-1.826,0.838-2.835,0.838c-1.525,0-3.072-0.623-4.06-1.804
		c-1.804-2.213-1.611-5.478-2.213-8.12c-0.602-2.728-1.504-5.284-1.633-8.12c-0.172-4.64-0.064-9.301-0.107-13.941
		c-0.064-8.807-0.301-17.7,0.236-26.529c-17.378,0.709-34.799,1.074-52.177,0.687c1.633,13.791-0.687,28.183-0.687,42.038
		c-0.086,2.986-0.193,6.036-1.246,8.829c-1.847,4.898-9.409,9.237-12.588,2.793c-1.654-3.372-2.062-7.669-1.933-12.158
		c-5.843,0.473-11.922-0.107-17.657-0.107c-3.244,0-6.702,0.193-10.16,0.258c3.265,5.091,7.153,9.752,10.332,14.886
		c3.716,0.473,7.325,1.224,10.719,2.535c4.49,1.697,4.468,7.411,0,9.129c-12.609,4.812-28.161,2.707-41.437,2.771l-40.191,0.215
		c-14.113,0.064-28.204,0.129-42.317,0.129c-11.234,0-23.758,1.482-35.057-0.365c-0.601,10.44-3.888,20.579-12.631,24.918
		c-12.974,6.401-21.524-6.595-26.4-17.571c-11.492,1.761-23.07,2.084-34.369-0.58c-2.084,9.989-7.11,20.944-18.581,19.204
		c-11.535-1.718-14.886-15.402-14.392-26.336c-9.795,1.439-20.493,0.344-29.987,0.387c-16.648,0.086-33.317,0.408-49.964,0.15
		c-12.459-0.193-75.183-4.253-85.193-4.361c-4.49-0.043-10.311-0.344-11.857-5.478c-0.537-1.847,0.236-3.995,1.826-5.048
		c1.074-0.709,2.406-0.924,3.673-1.117c4.769-0.73,9.559-1.203,14.349-1.654c0.58-0.043,1.181-0.107,1.654-0.473
		c0.344-0.279,0.559-0.687,0.773-1.096c0.816-1.654,10.633-22.984,11.063-22.984c-4.06-1.01-9.258-0.687-13.511-0.816
		c-5.542-0.172-11.621,0.258-17.399-0.215c-0.129,3.888-0.559,7.69-1.74,10.912c-2.234,6.079-10.612,6.423-12.717,0
		c-2.556-7.819-0.344-18.517,0.021-26.572c0.215-4.769-0.623-11.922,0.322-17.206c-18.516,0.387-37.119-0.043-55.635-0.838
		c0.365,6.509,0.236,13.06,0.193,19.569c-0.021,4.081-2.084,19.118-2.535,22.92c-0.816,6.831-9.817,6.809-10.612,0
		c-0.258-2.148-0.924-3.952-1.504-5.843c-6.466,0.859-13.511,0.064-19.848,0.043c-2.449-0.021-4.898,0.064-7.346,0.086
		c3.845,6.552,8.764,12.437,11.857,19.419c0.172,0.408,0.279,0.816,0.365,1.224c5.993,0.473,11.965,1.031,17.894,1.676
		c5.542,0.601,5.585,8.12,0,8.657c-9.43,0.924-18.925,0.945-28.419,0.58c-8.893,1.654-18.559,0.559-27.495,0.559
		c-9.774,0-19.548-0.064-29.321-0.15c-9.774-0.064-19.548-0.129-29.321-0.215c-6.638-0.043-13.511,0.58-19.977-0.666
		c1.074,11.578,0.451,23.779,0.344,35.379c8.184-1.332,17.335-0.236,25.176-0.279c12.717-0.086,25.433-0.193,38.171-0.215
		c13.404-0.043,26.83-0.043,40.255-0.064c10.461,0,21.588-1.096,32.028,0.451c0.516-2.9,1.16-5.778,1.998-8.614
		c1.246-4.275,7.411-4.275,8.657,0c3.308,11.17,3.845,23.092,3.759,34.992c5.628-0.451,11.234-0.902,16.905-0.709
		c7.368,0.258,7.346,11.192,0,11.428c-5.714,0.193-11.363-0.258-17.056-0.709c-0.064,3.952-0.15,7.883-0.15,11.75
		c0.021,4.425,0.021,8.829,0.043,13.254c7.239-1.138,34.326-0.15,39.997,0.902c4.511,0.859,4.511,8.292,0,9.129
		c-12.717,2.406-26.937,2.964-39.976,0.924c0.021,10.697,0.021,21.395,0.021,32.114c6.079-0.516,12.201-0.73,18.302-0.365
		c3.308,0.215,6.101,1.224,9.301,1.912c2.32,0.494,3.201,2.298,3.029,4.124c0.15,1.783-0.73,3.587-3.029,4.081
		c-3.201,0.666-5.993,1.676-9.301,1.89c-6.101,0.387-12.223,0.15-18.323-0.344c-0.021,11.814-0.043,23.65-0.064,35.486
		c3.437-0.902,7.454-0.687,10.891-0.644c3.609,0.064,6.766,0.838,10.225,1.804c4.21,1.181,4.21,7.346,0,8.528
		c-3.437,0.967-6.638,1.74-10.225,1.783c-3.437,0.064-7.475,0.279-10.912-0.623c0,1.89-0.021,3.802-0.021,5.692
		c-0.043,19.182-1.847,38.107-2.363,57.161c6.638-1.117,18.925-1.224,25.67,3.222c11.428,7.583,15.982,22.19,16.197,22.748
		c2.664,7.089,3.587,16.562,2.492,24.037c-0.344,2.298-2.664,3.759-4.855,3.995c-0.43,0.344-0.924,0.644-1.504,0.881
		c-2.578,1.01-5.306,1.675-8.098,2.062c2.857,26.336,0.988,53.981,1.181,80.36c0.236,27.538,0.215,55.077,0.215,82.615
		c0.021,27.56-0.172,55.098-0.365,82.637c-0.129,20.815,1.375,42.425-1.504,63.175c8.313-0.945,17.228-1.332,25.605-0.107
		c-1.74-19.934-0.945-40.191-1.074-60.189c-0.15-20.708-0.064-41.394-0.064-62.08c0.021-73.357,0.021-146.714,0.129-220.071
		c0.043-36.818,0.086-73.658,0.129-110.497c0.021-18.409,0.064-36.818,0.064-55.249c0-4.769,0.666-9.623-0.107-14.371
		c-0.644-4.06,0.537-44.745,1.224-53.638c0.064-1.053,0.473-1.933,1.053-2.664c0.709-1.697,2.084-3.029,4.103-3.394
		c6.831-1.224,13.275-1.31,20.256-1.289c46.162,0.043,92.325,0.107,138.487,0.15s92.325,0.107,138.508,0.15
		c46.162,0.064,92.325,0.107,138.487,0.172c12.373,0,24.789,0.021,37.097,1.31c4.704,0.473,10.977,3.781,8.915,8.055
		c-1.053,2.191-3.824,2.835-6.251,3.158c-1.761,0.215-3.523,0.43-5.284,0.601c0.129,7.712,0.344,15.423,0.344,23.156
		c0.021,2.427,0.064,4.876,0.086,7.303c0.451,35.465,0.387,70.951,0.43,106.416c0.107,73.121,0.193,146.22,0.215,219.341
		c0,37.119,0.021,74.216,0.021,111.314c0,36.281,1.504,72.347-1.053,108.586c-0.064,0.902-0.107,1.847,0.387,2.578
		c0.494,0.73,1.396,1.01,2.255,1.267c8.163,2.449,15.831,3.265,24.402,2.642c-0.215-0.387-0.408-0.816-0.494-1.31
		c-4.232-22.641-2.363-46.57-2.535-69.534c-0.193-27.538-0.365-55.077-0.344-82.615c0-27.538-0.021-55.077,0.193-82.637
		c0.215-26.378-1.654-54.024,1.181-80.338c-2.792-0.408-5.499-1.053-8.077-2.084c-0.601-0.236-6.015-2.599-6.358-4.876
		c-1.117-7.475-0.172-16.948,2.47-24.037c0.344-0.881,0.838-1.547,1.439-2.019c2.664-19.676,22.555-26.937,40.448-23.951
		c-0.516-19.053-2.341-37.957-2.384-57.139c0-1.912,0-3.802,0-5.714c-3.437,0.924-7.475,0.687-10.912,0.644
		c-3.609-0.064-6.788-0.816-10.225-1.783c-4.21-1.203-4.21-7.368,0-8.549c3.437-0.967,6.616-1.74,10.225-1.783
		c3.415-0.064,7.454-0.279,10.891,0.623c-0.021-11.836-0.043-23.65-0.064-35.486c-6.101,0.494-12.223,0.709-18.345,0.344
		c-3.287-0.193-6.079-1.203-9.28-1.89c0-0.043,0.021-0.064,0.021-0.107c-3.609-1.138-4.554-7.132-0.021-8.098
		c3.201-0.687,5.993-1.676,9.28-1.89c6.101-0.387,12.244-0.172,18.323,0.344c-0.021-10.697,0-21.416,0.021-32.114
		c-13.06,2.041-27.259,1.482-39.976-0.902c-4.511-0.859-4.511-8.292,0-9.129c12.717-2.406,26.937-2.964,39.997-0.924
		c0-4.425,0.021-8.829,0.021-13.254c0.021-3.867-0.064-7.798-0.15-11.75c-5.671,0.473-11.32,0.902-17.034,0.709
		c-7.368-0.236-7.346-11.17,0-11.428c5.649-0.172,11.256,0.258,16.884,0.709c-0.064-11.879,0.451-23.779,3.759-34.992
		c1.267-4.275,7.411-4.275,8.678,0c0.838,2.835,1.482,5.714,1.998,8.635c11.084-1.676,23.027-0.473,34.133-0.451
		c12.717,0,25.433,0,38.15,0.043c13.426,0.043,26.851,0.15,40.277,0.236C1048.912,385.463,1056.301,384.712,1063.24,385.442z
		 M938.951,654.318c-0.086-0.601-0.15-1.203-0.215-1.783c-0.344-2.814-0.537-5.649-0.322-8.442c-8.7,1.332-17.55,0.902-26.378,0.902
		c-8.721,0-19.548,1.568-28.247-0.773c0.129,3.587,0.73,7.153,0.881,10.719c9.43-2.17,20.085-0.773,29.558-0.73
		C922.239,654.232,930.724,653.759,938.951,654.318z M938.586,244.356c-21.159-0.064-42.339-0.129-63.519-0.193
		c-12.76-0.043-25.541-0.086-38.3-0.129c1.181,0.58,2.105,1.611,2.298,3.072c0.988,7.218,1.525,14.392,1.74,21.631
		c32.049,2.062,64.357,0.838,96.47,2.105c-0.451-3.072-0.344-6.251-0.322-9.409C937.018,255.741,937.04,249.898,938.586,244.356z
		 M912.036,632.45c7.583,0,15.187-0.322,22.705,0.451c-5.048-7.454-13.254-11.879-23.221-11.664
		c-5.349,0.107-11.471,1.117-15.488,4.919c-1.761,1.676-2.9,3.716-3.931,5.843C898.804,631.677,905.892,632.45,912.036,632.45z
		 M924.774,702.585c0.043-2.105,0.021-4.232,0.021-6.38c-4.683,0.451-9.452,1.01-13.855-0.558c-4.747-1.676-4.726-7.969,0-9.645
		c4.382-1.547,9.151-1.01,13.812-0.537c0.043-6.015,0.365-12.008,1.439-17.722c-4.038-0.064-8.077-0.172-11.965-0.15
		c-4.339,0-8.936,0.322-13.533,0.43c1.375,12.932,1.611,26.164,1.504,39.417c-0.064,13.576-0.494,27.152-0.387,40.405
		c0.043,5.392,0.086,10.783,0.107,16.154c0.129,22.168,0.107,44.336,0.107,66.483c0,22.104-0.107,44.186-0.258,66.29
		c0.107-0.043,0.193-0.086,0.301-0.107c7.303-1.976,13.812-1.611,21.287-0.881c0.15,0,0.258,0.043,0.387,0.064
		c0-5.177,0-10.354,0-15.531c-4.704,0.816-9.495,0.967-13.877-1.332c-3.093-1.633-3.093-6.595,0-8.227
		c4.382-2.298,9.172-2.148,13.898-1.31c0.021-15.208,0.064-30.395,0.236-45.582c0.193-18.065,0.301-36.152,0.408-54.218
		c-6.509,0.752-13.898,1.611-19.29-1.611c-1.504-0.924-2.277-2.47-2.277-4.038s0.773-3.115,2.277-4.017
		c5.413-3.244,12.846-2.363,19.354-1.611c0.021-5.112,0.064-10.225,0.086-15.337c0.064-10.225,0.064-20.45,0.129-30.675
		c-5.263,1.224-12.652,2.47-17.185-0.516c-1.633-1.096-2.449-2.728-2.449-4.382c0-1.654,0.816-3.287,2.449-4.382
		C912.057,700.072,919.511,701.361,924.774,702.585z M923.786,941.903c-0.021-11.6-0.021-23.199-0.043-34.778
		c-0.129,0-0.236,0.043-0.387,0.064c-7.475,0.73-13.984,1.096-21.287-0.881c-0.129-0.043-0.236-0.086-0.365-0.129
		c0,2.298-0.021,4.618-0.043,6.917c-0.064,9.946,0.258,20.085,0.279,30.202c0.043-0.021,0.086-0.043,0.129-0.064
		C908.577,940.528,916.848,941.667,923.786,941.903z M924.473,977.304c-1.01-7.583-0.967-15.38-0.816-23.113
		c-6.917,0.258-15.144,1.353-21.588-1.31c-0.064-0.043-0.129-0.086-0.193-0.129c-0.215,10.075-0.902,20.106-2.728,29.88
		c-0.021,0.15-0.086,0.258-0.129,0.408c0.021,0,0.043,0,0.064-0.021c7.218-0.859,14.435-2.277,21.438-4.275
		C921.831,978.378,923.141,977.841,924.473,977.304z M849.849,523.349c0.064-40.448-0.601-80.854,2.277-121.238
		c-8.163,0.408-16.368,0.43-24.553,0.43c-142.869,0.15-285.76,0.322-428.629,0.473c0.258,12.974,1.332,25.884,1.375,38.837
		c0.043,9.924,0,19.848,0.021,29.751c0.021,20.536,0.043,41.093,0.064,61.629c0.107,73.121,0.193,146.22,0.215,219.341
		c0,37.097,0.021,74.216,0.021,111.314c0,17.765,0.559,35.83,0.709,53.874c0.086,0,0.15,0,0.215,0
		c4.146,0.086,8.292,0.172,12.437,0.215c13.554,0.15,27.087,0.236,40.642,0.301c77.739,0.408,155.5,0.107,233.239-0.064
		c6.358-0.021,12.717-0.043,19.075-0.064c41.179-0.107,82.358,0.408,123.515,0.408c4.447,0.043,10.655,1.246,14.929,0.15
		c5.241-1.353,4.21-1.933,4.339-7.991c0.408-18.925-0.15-37.871-0.129-56.817c0.021-73.357,0-146.714,0.107-220.05
		C849.763,597.007,849.806,560.167,849.849,523.349z M848.861,306.887c0.494-7.798,0.215-16.261,1.289-24.059
		c-5.349-0.258-10.697-0.559-16.046-0.988c-3.652-0.279-6.766-2.878-6.766-6.766c0-9.43,0.537-18.645,1.826-27.968
		c0.193-1.482,1.117-2.513,2.32-3.093c-19.419-0.064-38.859-0.129-58.299-0.193c-16.282-0.064-32.565-0.043-48.869-0.279
		c-14.822-0.236-30.159,0.516-44.873-1.353c-0.387-0.064-0.773-0.15-1.138-0.236c0.064,9.86,0.107,19.741,0.15,29.622
		c0,18.753,1.096,37.377-1.096,56.044c-0.064,0.537-0.129,1.074-0.021,1.59c0.129,0.666,0.516,1.246,0.859,1.826
		c1.976,3.33,1.181,7.346,4.361,8.421c2.857,0.945,9.108-0.795,12.287-0.816c7.905-0.064,15.788,0.601,23.693,0.601
		c13.383,0,26.787,0.064,40.191,0.129c14.091,0.086,28.204,0.15,42.296,0.236c3.673,0,8.335,0.537,11.836-0.451
		c-1.847-4.49-5.607-8.549-7.755-13.082c-0.623-1.332-1.224-2.685-2.127-3.867c-0.494-0.666-1.096-1.246-1.482-1.998
		c-1.396-2.599,0.344-5.435,2.836-6.466c7.604-3.115,17.013-1.804,25.133-1.804c6.122-0.021,12.674-0.687,18.903-0.021
		C848.581,310.13,848.753,308.433,848.861,306.887z M706.958,201.394c-1.933-9.774-12.566-8.098-20.557-8.571
		c-5.198-0.301-10.375-0.709-15.574-1.074c-16.476-1.16-32.952-2.148-49.47-2.664c-7.153-0.215-74.023-3.265-77.503,9.237
		c13.06,0.322,26.099,0.43,39.138,0.301c4.468-0.043,8.27,3.824,8.27,8.27c-0.021,45.819-0.215,91.637-0.644,137.477
		c-0.043,3.544-2.019,5.778-4.554,6.766c0.129,5.241,0.258,13.812,4.06,15.917c4.984,2.728,6.809-9.731,6.981-13.683
		c0.15-3.845,3.695-6.831,7.561-5.757c13.297,3.673,26.464,3.265,39.911,0.666c3.673-0.709,6.573,1.053,7.862,4.489
		c2.664,7.003,10.783,23.328,15.144,7.626c2.062-7.389,0.086-15.187,0.344-22.748c-0.15-0.301-0.301-0.623-0.387-1.01
		c-4.49-21.266-2.707-43.305-2.621-65.065c0.064-12.051,0.064-24.123,0.172-36.174c0.086-9.924-1.031-21.395,1.976-30.889
		c1.375-4.361,7.218-4.511,8.979-0.516c0.666-0.322,1.439-0.537,2.298-0.601C687.862,202.64,697.399,201.996,706.958,201.394z
		 M575.345,340.053c-0.301-32.307-0.451-64.614-0.516-96.922c-14.607,2.041-30.288,0.516-44.852,0.537
		c-16.261,0-32.522-0.021-48.804-0.043c-19.977-0.021-39.933-0.043-59.91-0.064c1.138,8.85,1.654,17.593,1.654,26.529
		c0,3.91-3.136,6.487-6.788,6.766c-5.22,0.43-10.461,0.73-15.702,0.967c1.074,5.37-0.021,12.803-0.129,17.7
		c-0.021,0.773-0.021,1.568-0.021,2.384c6.423-0.365,13.211,0.559,19.29,0.773c6.165,0.215,31.276,0.967,28.913,7.497
		c-3.652,10.075-8.356,20.622-14.199,30.073c14.371,0.043,28.892,1.289,42.274,2.621c0.623,0.043,1.16,0.215,1.633,0.408
		c8.893,0.021,17.786,0.043,26.679,0.086c13.383,0.086,26.744,0.15,40.126,0.215C554.638,339.645,565.442,338.506,575.345,340.053z
		 M574.787,228.288c0-4.361-0.021-8.743-0.043-13.125c-37.398,0.021-74.689-2.255-112.023-4.597
		c-87.449-5.478-175.112-12.48-261.873-24.896c-8.012-1.16-16.218-2.213-24.445-3.437c0.752,3.501,0.924,7.261,1.096,11.02
		c0.58,11.986,0.537,23.393,2.213,35.314c0.043,0.215,0.021,0.43,0.043,0.666c15.359-1.633,31.298-1.031,46.699-1.138
		c16.411-0.107,32.823-0.043,49.234-0.064c34.24-0.043,68.502-0.086,102.743-0.129c34.24-0.021,68.502-0.064,102.743-0.107
		c16.97,0,33.94-0.043,50.931-0.021C545.981,227.773,560.846,226.398,574.787,228.288z M411.017,243.561
		c-10.869-0.021-21.717-0.021-32.586-0.043c-21.975-0.021-43.928-0.043-65.882-0.064c0.666,4.275,0.709,8.678,0.752,12.996
		c0.021,3.136,0.129,6.315-0.344,9.387c32.135-1.267,64.443-0.021,96.492-2.105C409.642,256.986,410.136,250.284,411.017,243.561z
		 M365.563,649.936c0.15-3.544,0.773-7.11,0.902-10.697c-8.743,2.363-19.44,0.773-28.269,0.773c-8.807,0-17.657,0.43-26.357-0.924
		c0.215,2.814,0.021,5.628-0.322,8.442c-0.064,0.58-0.15,1.181-0.215,1.804c8.227-0.559,16.734-0.086,24.724-0.107
		C345.5,649.184,356.133,647.766,365.563,649.936z M338.197,627.467c5.843,0,12.609-0.709,19.054-0.473
		c-3.931-6.401-7.669-10.612-18.517-10.74c-9.989-0.129-18.194,4.21-23.221,11.664C323.031,627.144,330.635,627.467,338.197,627.467
		z M336.306,970.408c4.425-0.086,9.086-0.602,13.597-0.408c-0.945-7.346-1.375-14.779-1.525-22.233
		c-0.086,0.021-0.129,0.086-0.215,0.107c-6.444,2.685-14.693,1.568-21.61,1.332c0.107,7.11,0.193,14.306-0.58,21.33
		C329.411,970.408,332.891,970.494,336.306,970.408z M348.314,938.316c0.021-10.139,0.344-20.256,0.258-30.202
		c0-2.32-0.021-4.618-0.043-6.938c-0.107,0.043-0.236,0.107-0.365,0.15c-7.303,1.976-13.812,1.611-21.288,0.881
		c-0.129-0.021-0.236-0.064-0.387-0.086c0,11.6,0,23.199-0.043,34.799c6.938-0.236,15.251-1.375,21.717,1.31
		C348.228,938.251,348.25,938.294,348.314,938.316z M348.164,891.681c0.107,0.021,0.215,0.064,0.322,0.107
		c-0.15-22.104-0.279-44.208-0.258-66.311c0-22.147-0.021-44.315,0.086-66.462c0.043-5.392,0.064-10.762,0.107-16.154
		c0.107-13.254-0.301-26.83-0.387-40.405c-0.086-13.254,0.15-26.486,1.525-39.417c-4.618-0.129-9.194-0.43-13.533-0.451
		c-3.91,0-7.926,0.107-11.986,0.15c1.096,5.714,1.461,11.686,1.525,17.722c4.64-0.451,9.387-0.988,13.748,0.558
		c4.726,1.676,4.726,7.969,0,9.645c-4.382,1.547-9.151,1.01-13.791,0.559c-0.021,2.148-0.043,4.275-0.043,6.358
		c5.284-1.203,12.717-2.492,17.271,0.516c1.633,1.074,2.449,2.728,2.449,4.382c0,1.654-0.816,3.287-2.449,4.382
		c-4.532,2.986-11.943,1.718-17.206,0.516c0.086,10.934,0.107,21.867,0.15,32.801c0.021,4.404,0.064,8.807,0.086,13.211
		c6.509-0.752,13.941-1.654,19.354,1.59c1.504,0.924,2.255,2.47,2.255,4.038s-0.752,3.115-2.255,4.038
		c-5.392,3.222-12.803,2.341-19.29,1.611c0.086,18.065,0.215,36.152,0.408,54.218c0.15,15.187,0.215,30.374,0.236,45.561
		c4.726-0.816,9.516-0.967,13.898,1.332c3.093,1.611,3.093,6.595,0,8.227c-4.382,2.298-9.172,2.148-13.898,1.31
		c0,5.177,0.021,10.375,0,15.552c0.15-0.021,0.258-0.064,0.387-0.086C334.373,890.048,340.882,889.683,348.164,891.681z"/>
	<path fill="#4A6078" d="M1130.539,133.923c-2.621,10.998-5.241,21.975-7.862,32.952c-10.354,2.406-21.588,3.007-31.899,4.361
		c-28.333,3.716-56.731,6.981-85.172,9.903c-66.999,6.895-134.126,10.483-201.318,14.8c-28.548,1.847-57.139,3.115-85.709,4.769
		c0-0.172,0.021-0.301,0-0.473c-2.449-20.922-24.144-18.645-40.341-19.741c-19.676-1.332-39.353-2.599-59.072-2.921
		c-2.105-0.021-4.21-0.064-6.337-0.086l0.043-4.855c48.482,0.559,96.922-0.322,145.554-2.9
		c71.359-3.781,142.697-7.518,213.777-15.208c38.945-4.21,77.804-9.151,116.555-14.8
		C1102.249,137.746,1116.77,136.629,1130.539,133.923z"/>
	<path fill="#D43F49" d="M1071.059,190.31c5.972-0.73,11.943-1.482,17.915-2.255c-3.136,5.972-6.015,12.072-8.936,18.151
		c-3.609,7.561-7.239,15.101-10.869,22.662c-94.215-0.279-188.408-0.258-282.623-0.365c-18.409-0.021-36.818-0.172-55.227-0.043
		c-17.099,0.129-34.906-0.859-51.876,1.224c-0.365,0.064-0.709,0.15-1.053,0.236c0.107-4.941,0.193-10.032-0.193-14.951
		c0.043,0,0.086,0.021,0.15,0.021c46.334,1.676,92.84-1.783,139.11-4.275c42.94-2.32,85.859-4.253,128.735-7.755
		C987.885,199.547,1029.536,195.401,1071.059,190.31z"/>
	<path d="M1083.603,983.812c1.869,7.26,5.521,14.628,2.599,22.168c-1.718,4.447-5.263,7.819-9.194,10.375
		c-9.323,6.058-20.858,8.077-31.641,9.666c-4.468,0.645-8.313-5.8-3.372-8.034c7.153-3.265,14.779-4.704,22.147-7.389
		c3.759-1.353,8.743-3.244,11.17-6.681c3.523-5.048-0.451-12.094-1.74-17.357C1071.961,980.075,1081.906,977.325,1083.603,983.812z"
		/>
	<path fill="#D43F49" d="M1061.521,346.411c0.064,12.996,1.633,25.992,1.719,39.031c-6.938-0.73-14.328,0.021-20.987,0
		c-13.425-0.086-26.851-0.193-40.277-0.236c-12.717-0.043-25.433-0.043-38.15-0.043c-11.106-0.021-23.049-1.224-34.133,0.451
		c-0.516-2.921-1.16-5.8-1.998-8.635c-1.267-4.275-7.411-4.275-8.678,0c-3.308,11.213-3.824,23.113-3.759,34.992
		c-5.628-0.451-11.234-0.881-16.884-0.709c-7.346,0.258-7.368,11.192,0,11.428c5.714,0.193,11.363-0.236,17.034-0.709
		c0.086,3.952,0.172,7.883,0.15,11.75c0,4.425-0.021,8.829-0.021,13.254c-13.06-2.041-27.281-1.482-39.997,0.924
		c-4.511,0.838-4.511,8.27,0,9.129c12.717,2.384,26.915,2.943,39.976,0.902c-0.021,10.697-0.043,21.416-0.021,32.114
		c-6.079-0.516-12.223-0.73-18.323-0.344c-3.287,0.215-6.079,1.203-9.28,1.89c-4.532,0.967-3.587,6.96,0.021,8.098
		c0,0.043-0.021,0.064-0.021,0.107c3.201,0.687,5.993,1.697,9.28,1.89c6.122,0.365,12.244,0.15,18.345-0.344
		c0.021,11.836,0.043,23.65,0.064,35.486c-3.437-0.902-7.475-0.687-10.891-0.623c-3.609,0.043-6.788,0.816-10.225,1.783
		c-4.21,1.181-4.21,7.346,0,8.549c3.437,0.967,6.616,1.718,10.225,1.783c3.437,0.043,7.475,0.279,10.912-0.644
		c0,1.912,0,3.802,0,5.714c0.043,19.182,1.869,38.086,2.384,57.139c-17.894-2.986-37.785,4.275-40.448,23.951
		c-0.602,0.473-1.096,1.138-1.439,2.019c-2.642,7.089-3.587,16.562-2.47,24.037c0.344,2.277,5.757,4.64,6.358,4.876
		c2.578,1.031,5.284,1.676,8.077,2.084c-2.835,26.314-0.967,53.96-1.181,80.338c-0.215,27.56-0.193,55.098-0.193,82.637
		c-0.021,27.538,0.15,55.077,0.344,82.615c0.172,22.963-1.697,46.893,2.535,69.534c0.086,0.494,0.279,0.924,0.494,1.31
		c-8.571,0.623-16.24-0.193-24.402-2.642c-0.859-0.258-1.761-0.537-2.255-1.267c-0.494-0.73-0.451-1.676-0.387-2.578
		c2.556-36.238,1.053-72.305,1.053-108.586c0-37.097-0.021-74.195-0.021-111.314c-0.021-73.121-0.107-146.22-0.215-219.341
		c-0.043-35.465,0.021-70.951-0.43-106.416c-0.021-2.427-0.064-4.876-0.086-7.303c0-7.733-0.215-15.445-0.344-23.156
		c1.761-0.172,3.523-0.387,5.284-0.601c2.427-0.322,5.198-0.967,6.251-3.158c2.062-4.275-4.21-7.583-8.915-8.055
		c-12.309-1.289-24.724-1.31-37.097-1.31c-46.162-0.064-92.325-0.107-138.487-0.172c-46.184-0.043-92.346-0.107-138.508-0.15
		s-92.325-0.107-138.487-0.15c-6.981-0.021-13.426,0.064-20.256,1.289c-2.019,0.365-3.394,1.697-4.103,3.394
		c-0.58,0.73-0.988,1.611-1.053,2.664c-0.687,8.893-1.869,49.578-1.224,53.638c0.773,4.747,0.107,9.602,0.107,14.371
		c0,18.431-0.043,36.84-0.064,55.249c-0.043,36.84-0.086,73.679-0.129,110.497c-0.107,73.357-0.107,146.714-0.129,220.071
		c0,20.686-0.086,41.372,0.064,62.08c0.129,19.999-0.666,40.255,1.074,60.189c-8.378-1.224-17.292-0.838-25.605,0.107
		c2.878-20.75,1.375-42.36,1.504-63.175c0.193-27.538,0.387-55.077,0.365-82.637c0-27.538,0.021-55.077-0.215-82.615
		c-0.193-26.378,1.676-54.024-1.181-80.36c2.793-0.387,5.521-1.053,8.098-2.062c0.58-0.236,1.074-0.537,1.504-0.881
		c2.191-0.236,4.511-1.697,4.855-3.995c1.096-7.475,0.172-16.948-2.492-24.037c-0.215-0.559-4.769-15.165-16.197-22.748
		c-6.745-4.447-19.032-4.339-25.67-3.222c0.516-19.054,2.32-37.978,2.363-57.161c0-1.89,0.021-3.802,0.021-5.692
		c3.437,0.902,7.475,0.687,10.912,0.623c3.587-0.043,6.788-0.816,10.225-1.783c4.21-1.181,4.21-7.346,0-8.528
		c-3.458-0.967-6.616-1.74-10.225-1.804c-3.437-0.043-7.454-0.258-10.891,0.644c0.021-11.836,0.043-23.672,0.064-35.486
		c6.101,0.494,12.223,0.73,18.323,0.344c3.308-0.215,6.101-1.224,9.301-1.89c2.298-0.494,3.179-2.298,3.029-4.081
		c0.172-1.826-0.709-3.63-3.029-4.124c-3.201-0.687-5.993-1.697-9.301-1.912c-6.101-0.365-12.223-0.15-18.302,0.365
		c0-10.719,0-21.416-0.021-32.114c13.039,2.041,27.259,1.482,39.976-0.924c4.511-0.838,4.511-8.27,0-9.129
		c-5.671-1.053-32.758-2.041-39.997-0.902c-0.021-4.425-0.021-8.829-0.043-13.254c0-3.867,0.086-7.798,0.15-11.75
		c5.692,0.451,11.342,0.902,17.056,0.709c7.346-0.236,7.368-11.17,0-11.428c-5.671-0.193-11.277,0.258-16.905,0.709
		c0.086-11.9-0.451-23.822-3.759-34.992c-1.246-4.275-7.411-4.275-8.657,0c-0.838,2.835-1.482,5.714-1.998,8.614
		c-10.44-1.547-21.567-0.451-32.028-0.451c-13.426,0.021-26.851,0.021-40.255,0.064c-12.738,0.021-25.455,0.129-38.171,0.215
		c-7.841,0.043-16.991-1.053-25.176,0.279c0.107-11.6,0.73-23.801-0.344-35.379c6.466,1.246,13.34,0.623,19.977,0.666
		c9.774,0.086,19.548,0.15,29.321,0.215c9.774,0.086,19.548,0.15,29.321,0.15c8.936,0,18.602,1.096,27.495-0.559
		c9.495,0.365,18.989,0.344,28.419-0.58c5.585-0.537,5.542-8.055,0-8.657c-5.929-0.644-11.9-1.203-17.894-1.676
		c-0.086-0.408-0.193-0.816-0.365-1.224c-3.093-6.981-8.012-12.867-11.857-19.419c2.449-0.021,4.898-0.107,7.346-0.086
		c6.337,0.021,13.383,0.816,19.848-0.043c0.58,1.89,1.246,3.695,1.504,5.843c0.795,6.809,9.795,6.831,10.612,0
		c0.451-3.802,2.513-18.839,2.535-22.92c0.043-6.509,0.172-13.06-0.193-19.569c18.516,0.795,37.119,1.224,55.635,0.838
		c-0.945,5.284-0.107,12.437-0.322,17.206c-0.365,8.055-2.578,18.753-0.021,26.572c2.105,6.423,10.483,6.079,12.717,0
		c1.181-3.222,1.611-7.024,1.74-10.912c5.778,0.473,11.857,0.043,17.399,0.215c4.253,0.129,9.452-0.193,13.511,0.816
		c-0.43,0-10.246,21.33-11.063,22.984c-0.215,0.408-0.43,0.816-0.773,1.096c-0.473,0.365-1.074,0.43-1.654,0.473
		c-4.79,0.451-9.58,0.924-14.349,1.654c-1.267,0.193-2.599,0.408-3.673,1.117c-1.59,1.053-2.363,3.201-1.826,5.048
		c1.547,5.134,7.368,5.435,11.857,5.478c10.01,0.107,72.734,4.167,85.193,4.361c16.648,0.258,33.317-0.064,49.964-0.15
		c9.495-0.043,20.192,1.053,29.987-0.387c-0.494,10.934,2.857,24.617,14.392,26.336c11.471,1.74,16.497-9.215,18.581-19.204
		c11.299,2.664,22.877,2.341,34.369,0.58c4.876,10.977,13.426,23.973,26.4,17.571c8.743-4.339,12.029-14.478,12.631-24.918
		c11.299,1.847,23.822,0.365,35.057,0.365c14.113,0,28.204-0.064,42.317-0.129l40.191-0.215c13.275-0.064,28.827,2.041,41.437-2.771
		c4.468-1.718,4.49-7.432,0-9.129c-3.394-1.31-7.003-2.062-10.719-2.535c-3.179-5.134-7.067-9.795-10.332-14.886
		c3.458-0.064,6.917-0.258,10.16-0.258c5.735,0,11.814,0.58,17.657,0.107c-0.129,4.49,0.279,8.786,1.933,12.158
		c3.179,6.444,10.74,2.105,12.588-2.793c1.053-2.793,1.16-5.843,1.246-8.829c0-13.855,2.32-28.247,0.687-42.038
		c17.378,0.387,34.799,0.021,52.177-0.687c-0.537,8.829-0.301,17.722-0.236,26.529c0.043,4.64-0.064,9.301,0.107,13.941
		c0.129,2.835,1.031,5.392,1.633,8.12c0.601,2.642,0.408,5.907,2.213,8.12c0.988,1.181,2.535,1.804,4.06,1.804l3.995,2.707
		c-0.537,0.773-0.838,1.676-0.73,2.621c0.387,2.857,4.017,3.824,6.895,4.038c17.442,1.289,34.949-0.172,52.413-1.289
		c22.297-1.418,44.637-2.255,66.999-2.492C1055.893,346.69,1058.729,346.648,1061.521,346.411z M1046.162,364.627
		c3.007-1.16,3.029-4.984,0-6.143c-9.86-3.824-22.104-2.513-32.543-2.578c-12.008-0.064-23.994,0.172-35.937,1.482
		c-5.327,0.58-5.349,7.733,0,8.335c11.943,1.31,23.93,1.547,35.937,1.461C1024.101,367.119,1036.281,368.429,1046.162,364.627z
		 M556.378,374.702c6.38-0.58,6.401-9.366,0-9.946c-20.557-1.847-41.372-1.525-61.994-1.418
		c-18.538,0.086-40.964-2.771-58.922,2.084c-4.253,1.16-4.253,7.454,0,8.614c8.678,2.341,17.894,1.718,26.851,1.826
		c10.676,0.107,21.373,0.215,32.071,0.258C515.005,376.227,535.82,376.549,556.378,374.702z M272.551,365.014
		c5.349-0.58,5.37-7.733,0-8.313c-11.943-1.332-23.908-1.547-35.916-1.482c-10.483,0.064-22.662-1.246-32.543,2.556
		c-3.029,1.181-3.029,4.984,0,6.165c9.86,3.802,22.104,2.492,32.543,2.556C248.643,366.56,260.608,366.345,272.551,365.014z"/>
	<path d="M1046.162,358.483c3.029,1.16,3.007,4.984,0,6.143c-9.881,3.802-22.061,2.492-32.543,2.556
		c-12.008,0.086-23.994-0.15-35.937-1.461c-5.349-0.601-5.327-7.755,0-8.335c11.943-1.31,23.93-1.547,35.937-1.482
		C1024.058,355.97,1036.302,354.66,1046.162,358.483z"/>
	<path d="M1045.367,980.741c19.032,26.507-30.782,28.956-44.358,31.19c-23.178,3.845-46.57,6.466-70.028,7.926
		c-42.876,2.642-85.623,1.074-128.327-3.265c-14.714-1.504-47.086-2.578-52.07-20.772c-2.964-10.826,7.325-20.686,16.025-25.004
		c14.113-6.981,31.62-6.938,47-8.227c5.757-0.494,6.165,7.905,1.289,9.559c-13.963,4.726-30.116,2.728-43.391,9.666
		c-3.158,1.654-10.783,6.53-10.139,11.041c0.43,3.136,5.671,5.048,8.141,6.058c18.989,7.819,41.737,7.862,61.972,9.258
		c65.237,4.554,131.055,0.773,195.347-11.17c2.513-0.473,5.091-0.988,7.196-2.449c2.084-1.482,3.523-4.167,2.75-6.595
		c-0.73-2.32-3.093-3.63-5.306-4.618c-7.497-3.394-15.466-5.757-23.607-7.003c-2.621-0.408-5.392-0.73-7.583-2.255
		c-2.191-1.504-3.523-4.64-2.105-6.895c1.353-2.17,4.361-2.427,6.917-2.341c8.721,0.322,17.399,2.191,25.476,5.478
		C1036.238,972.621,1041.802,975.757,1045.367,980.741z"/>
	<path fill="#4A6078" d="M938.737,652.535c0.064,0.58,0.129,1.181,0.215,1.783c-8.227-0.558-16.712-0.086-24.724-0.107
		c-9.473-0.043-20.128-1.439-29.558,0.73c-0.15-3.566-0.752-7.132-0.881-10.719c8.7,2.341,19.526,0.773,28.247,0.773
		c8.829,0,17.679,0.43,26.378-0.902C938.2,646.885,938.393,649.721,938.737,652.535z"/>
	<path fill="#4A6078" d="M875.067,244.162c21.18,0.064,42.36,0.129,63.519,0.193c-1.547,5.542-1.568,11.385-1.633,17.077
		c-0.021,3.158-0.129,6.337,0.322,9.409c-32.114-1.267-64.421-0.043-96.47-2.105c-0.215-7.239-0.752-14.414-1.74-21.631
		c-0.193-1.461-1.117-2.492-2.298-3.072C849.527,244.077,862.308,244.119,875.067,244.162z"/>
	<path fill="#D43F49" d="M934.741,632.901c-7.518-0.773-15.123-0.451-22.705-0.451c-6.144,0-13.232-0.773-19.934-0.451
		c1.031-2.127,2.17-4.167,3.931-5.843c4.017-3.802,10.139-4.812,15.488-4.919C921.487,621.022,929.693,625.447,934.741,632.901z"/>
	<path fill="#D43F49" d="M924.795,696.205c0,2.148,0.021,4.275-0.021,6.38c-5.263-1.224-12.717-2.513-17.271,0.494
		c-1.633,1.096-2.449,2.728-2.449,4.382l-2.857-0.021c0.107-13.254-0.129-26.486-1.504-39.417c4.597-0.107,9.194-0.43,13.533-0.43
		c3.888-0.021,7.926,0.086,11.965,0.15c-1.074,5.714-1.396,11.707-1.439,17.722c-4.661-0.473-9.43-1.01-13.812,0.537
		c-4.726,1.675-4.747,7.969,0,9.645C915.344,697.215,920.113,696.656,924.795,696.205z"/>
	<path fill="#D43F49" d="M924.688,712.359c-0.064,10.225-0.064,20.45-0.129,30.675c-0.021,5.112-0.064,10.225-0.086,15.337
		c-6.509-0.752-13.941-1.633-19.354,1.611c-1.504,0.902-2.277,2.449-2.277,4.017h-0.924c-0.021-5.37-0.064-10.762-0.107-16.154
		c-0.107-13.254,0.322-26.83,0.387-40.405l2.857,0.021c0,1.654,0.816,3.287,2.449,4.382
		C912.036,714.829,919.425,713.583,924.688,712.359z"/>
	<path fill="#D43F49" d="M924.409,769.648c-0.107,18.065-0.215,36.152-0.408,54.218c-0.172,15.187-0.215,30.374-0.236,45.582
		c-4.726-0.838-9.516-0.988-13.898,1.31c-3.093,1.633-3.093,6.595,0,8.227c4.382,2.298,9.172,2.148,13.877,1.332
		c0,5.177,0,10.354,0,15.531c-0.129-0.021-0.236-0.064-0.387-0.064c-7.475-0.73-13.984-1.096-21.287,0.881
		c-0.107,0.021-0.193,0.064-0.301,0.107c0.15-22.104,0.258-44.186,0.258-66.29c0-22.147,0.021-44.315-0.107-66.483h0.924
		c0,1.568,0.773,3.115,2.277,4.038C910.511,771.259,917.9,770.4,924.409,769.648z"/>
	<path fill="#D43F49" d="M923.743,907.126c0.021,11.578,0.021,23.178,0.043,34.778c-6.938-0.236-15.208-1.375-21.717,1.332
		c-0.043,0.021-0.086,0.043-0.129,0.064c-0.021-10.117-0.344-20.256-0.279-30.202c0.021-2.298,0.043-4.618,0.043-6.917
		c0.129,0.043,0.236,0.086,0.365,0.129c7.303,1.976,13.812,1.611,21.287,0.881C923.507,907.169,923.614,907.126,923.743,907.126z"/>
	<path fill="#D43F49" d="M923.657,954.19c-0.15,7.733-0.193,15.531,0.816,23.113c-1.332,0.537-2.642,1.074-3.952,1.439
		c-7.003,1.998-14.22,3.415-21.438,4.275c-0.021,0.021-0.043,0.021-0.064,0.021c0.043-0.15,0.107-0.258,0.129-0.408
		c1.826-9.774,2.513-19.805,2.728-29.88c0.064,0.043,0.129,0.086,0.193,0.129C908.513,955.544,916.74,954.448,923.657,954.19z"/>
	<path d="M830.237,1038.202c5.972,0.107,5.95,9.151,0,9.28c-40.405,0.773-85.021,3.329-123.837-10.225
		c-11.772-4.103-27.99-11.342-33.145-23.758c-5.005-12.072,3.716-24.338,12.888-31.577c3.802-3.007,10.504,0.902,7.282,5.607
		c-7.561,11.063-15.552,19.784-2.277,29.708c11.986,8.957,26.464,12.824,40.985,15.294
		C764.763,1038.073,797.264,1037.686,830.237,1038.202z"/>
	<path fill="#EBBE6C" d="M686.401,192.823c7.991,0.473,18.624-1.203,20.557,8.571c-9.559,0.601-19.096,1.246-28.612,1.998
		c-0.859,0.064-1.633,0.279-2.298,0.601c-1.761-3.995-7.604-3.845-8.979,0.516c-3.007,9.495-1.89,20.965-1.976,30.889
		c-0.107,12.051-0.107,24.123-0.172,36.174c-0.086,21.76-1.869,43.799,2.621,65.065c0.086,0.387,0.236,0.709,0.387,1.01
		c-0.258,7.561,1.719,15.359-0.344,22.748c-4.361,15.703-12.48-0.623-15.144-7.626c-1.289-3.437-4.189-5.198-7.862-4.489
		c-13.447,2.599-26.615,3.007-39.911-0.666c-3.867-1.074-7.411,1.912-7.561,5.757c-0.172,3.952-1.998,16.411-6.981,13.683
		c-3.802-2.105-3.931-10.676-4.06-15.917c2.535-0.988,4.511-3.222,4.554-6.766c0.43-45.84,0.623-91.659,0.644-137.477
		c0-4.447-3.802-8.313-8.27-8.27c-13.039,0.129-26.078,0.021-39.138-0.301c3.48-12.502,70.35-9.452,77.503-9.237
		c16.519,0.516,32.995,1.504,49.47,2.664C676.026,192.114,681.203,192.522,686.401,192.823z M650.786,262.464
		c-0.021-9,1.096-17.979,1.031-26.98c-0.064-7.346-0.322-16.111-3.244-23.285c-3.394-8.249-10.16-9.688-18.624-9.559
		c-7.389,0.107-14.091,0.322-21.416,1.504c-5.198,0.838-5.843,6.036-5.993,10.569c-1.31,37.935-0.838,75.913,1.418,113.784
		c0.795,13.318,11.814,12.352,22.533,12.588c7.282,0.15,14.005,0.236,21.051-1.783c4.855-1.375,4.855-8.463,0-9.838
		c-7.046-1.998-13.769-1.933-21.051-1.761c-4.704,0.086-9.537-0.215-14.027,0.859c0.945-0.215,1.826-16.734,1.976-18.516
		c0.537-6.079,0.473-12.158,0.494-18.28c0.021-18.409,0.064-36.84-0.064-55.249c-0.043-6.981,0.516-14.328-0.236-21.373
		c4.189,0.451,8.614,0.172,12.588,0.193c4.275,0.021,8.141,0.129,12.072-0.516c-5.134,14.113-2.127,33.166-2.127,47.645
		c-0.021,17.271-0.193,33.897,2.277,50.996c0.644,4.49,8.42,4.49,9.065,0C650.958,296.361,650.807,279.756,650.786,262.464z"/>
	<path d="M651.817,235.484c0.064,9-1.053,17.979-1.031,26.98c0.021,17.292,0.172,33.897-2.277,50.996
		c-0.644,4.49-8.421,4.49-9.065,0c-2.47-17.099-2.298-33.725-2.277-50.996c0-14.478-3.007-33.532,2.127-47.645
		c-3.931,0.644-7.798,0.537-12.072,0.516c-3.974-0.021-8.399,0.258-12.588-0.193c0.752,7.046,0.193,14.392,0.236,21.373
		c0.129,18.409,0.086,36.84,0.064,55.249c-0.021,6.122,0.043,12.201-0.494,18.28c-0.15,1.783-1.031,18.302-1.976,18.516
		c4.49-1.074,9.323-0.773,14.027-0.859c7.282-0.172,14.005-0.236,21.051,1.761c4.855,1.375,4.855,8.463,0,9.838
		c-7.046,2.019-13.769,1.933-21.051,1.783c-10.719-0.236-21.739,0.73-22.533-12.588c-2.255-37.871-2.728-75.849-1.418-113.784
		c0.15-4.532,0.795-9.731,5.993-10.569c7.325-1.181,14.027-1.396,21.416-1.504c8.463-0.129,15.23,1.31,18.624,9.559
		C651.495,219.374,651.753,228.138,651.817,235.484z"/>
	<path d="M619.338,982.115c6.638,20.042,2.47,32.801-15.466,44.53c-19.676,12.888-45.518,18.946-68.502,22.619
		c-4.447,0.709-8.249-5.821-3.351-7.969c16.325-7.239,34.584-8.936,51.21-15.466c9.43-3.695,21.202-8.872,27.925-16.798
		c6.272-7.411,4.146-16.54,2.019-25.219C612.185,979.795,618.049,978.249,619.338,982.115z"/>
	<path fill="#4A6078" d="M612.872,172.631l-0.043,4.855c-18.323-0.172-37.012,0.258-54.948,4.06
		c-8.958,1.89-23.049,5.972-24.445,16.497c-47.859-1.504-95.719-5.413-143.385-9.151c-66.161-5.177-132.537-11.063-198.161-21.202
		c-17.142-2.664-35.186-4.962-51.855-10.354c-1.718-8.657-3.458-17.314-5.177-25.97c12.437,3.222,25.39,5.048,37.892,7.067
		c29.536,4.726,59.266,8.335,89.017,11.621c80.961,8.893,162.266,14.972,243.614,19.161
		C541.298,171.063,577.085,172.245,612.872,172.631z"/>
	<path d="M576.29,973.63c8.979,11.664,2.707,24.896-8.42,32.501c-13.791,9.409-31.813,10.805-47.752,13.941
		c-23.006,4.489-46.076,8.098-69.426,10.461c-48.547,4.962-97.48,5.628-146.263,4.361c-24.144-0.623-47.215-3.201-70.994-7.325
		c-14.671-2.535-33.381-1.912-44.895-12.867c-21.33-20.321,20.256-30.718,32.973-34.82c5.413-1.761,7.475,6.466,2.32,8.399
		c-4.49,1.697-9.043,3.115-13.49,4.898c-3.91,1.568-12.889,4.275-15.123,8.141c-6.272,10.783,29.644,13.597,35.529,14.392
		c17.894,2.492,35.443,6.122,53.573,6.874c18.839,0.773,37.72,1.01,56.581,1.01c37.334,0.021,74.689-1.439,111.808-5.585
		c19.505-2.17,38.923-5.091,58.17-8.915c13.554-2.685,27.861-4.21,40.878-9.043c11.772-4.361,22.533-13.619,9.495-23.242
		c-7.776-5.735-16.54-9.623-25.197-13.791c-5.241-2.535-1.461-11.385,3.952-9.387C552.64,958.272,567.719,962.503,576.29,973.63z"/>
	<path fill="#D43F49" d="M574.744,215.163c0.021,4.382,0.043,8.764,0.043,13.125c-13.941-1.89-28.806-0.516-42.682-0.516
		c-16.991-0.021-33.961,0.021-50.931,0.021c-34.24,0.043-68.502,0.086-102.743,0.107c-34.24,0.043-68.502,0.086-102.743,0.129
		c-16.411,0.021-32.823-0.043-49.234,0.064c-15.402,0.107-31.341-0.494-46.699,1.138c-0.021-0.236,0-0.451-0.043-0.666
		c-1.676-11.922-1.633-23.328-2.213-35.314c-0.172-3.759-0.344-7.518-1.096-11.02c8.227,1.224,16.433,2.277,24.445,3.437
		c86.761,12.416,174.424,19.419,261.873,24.896C500.055,212.908,537.346,215.185,574.744,215.163z"/>
	<path d="M556.378,364.756c6.401,0.58,6.38,9.366,0,9.946c-20.557,1.847-41.372,1.525-61.994,1.418
		c-10.697-0.043-21.395-0.15-32.071-0.258c-8.957-0.107-18.173,0.516-26.851-1.826c-4.253-1.16-4.253-7.454,0-8.614
		c17.958-4.855,40.384-1.998,58.922-2.084C515.005,363.231,535.82,362.909,556.378,364.756z"/>
	<path d="M480.056,953.911c9.903,1.332,22.297,7.841,21.438,19.526c-0.838,11.75-13.125,18.431-23.006,21.696
		c-31.491,10.418-66.483,12.888-99.37,12.223c-18.452-0.387-36.883-1.568-55.249-3.244c-15.423-1.418-31.448-1.761-46.721-4.318
		c-9.258-1.547-23.221-6.487-22.512-18.173c0.623-10.418,12.394-15.703,21.094-17.657c6.036-1.375,8.27,7.132,2.535,9.194
		c-2.964,1.053-5.284,2.191-7.755,4.038c-3.201,2.384-3.523,1.976-1.718,5.864c2.556,5.478,10.655,5.585,16.175,6.101
		c9.602,0.924,19.225,1.461,28.827,2.384c22.405,2.127,44.873,3.781,67.385,4.124c24.381,0.365,48.396-1.482,72.24-6.788
		c7.755-1.718,15.788-2.964,23.285-5.692c4.79-1.761,15.531-6.251,11.106-13.92c-1.761-3.072-8.463-4.984-11.471-6.509
		C470.97,960.012,475.158,953.267,480.056,953.911z"/>
	<path fill="#4A6078" d="M378.43,243.518c10.869,0.021,21.717,0.021,32.586,0.043c-0.881,6.724-1.375,13.426-1.568,20.171
		c-32.049,2.084-64.357,0.838-96.492,2.105c0.473-3.072,0.365-6.251,0.344-9.387c-0.043-4.318-0.086-8.721-0.752-12.996
		C334.502,243.475,356.455,243.497,378.43,243.518z"/>
	<path fill="#4A6078" d="M366.465,639.238c-0.129,3.587-0.752,7.153-0.902,10.697c-9.43-2.17-20.063-0.752-29.536-0.709
		c-7.991,0.021-16.497-0.451-24.724,0.107c0.064-0.623,0.15-1.224,0.215-1.804c0.344-2.814,0.537-5.628,0.322-8.442
		c8.7,1.353,17.55,0.924,26.357,0.924C347.025,640.011,357.723,641.601,366.465,639.238z"/>
	<path fill="#D43F49" d="M357.25,626.994c-6.444-0.236-13.211,0.473-19.054,0.473c-7.561,0-15.165-0.322-22.684,0.451
		c5.027-7.454,13.232-11.793,23.221-11.664C349.581,616.383,353.319,620.593,357.25,626.994z"/>
	<path fill="#D43F49" d="M349.904,970c-4.511-0.193-9.172,0.322-13.597,0.408c-3.415,0.086-6.895,0-10.332,0.129
		c0.773-7.024,0.687-14.22,0.58-21.33c6.917,0.236,15.165,1.353,21.61-1.332c0.086-0.021,0.129-0.086,0.215-0.107
		C348.529,955.221,348.959,962.654,349.904,970z"/>
	<path fill="#D43F49" d="M348.572,908.114c0.086,9.946-0.236,20.063-0.258,30.202c-0.064-0.021-0.086-0.064-0.15-0.086
		c-6.466-2.685-14.779-1.547-21.717-1.31c0.043-11.6,0.043-23.199,0.043-34.799c0.15,0.021,0.258,0.064,0.387,0.086
		c7.475,0.73,13.984,1.096,21.288-0.881c0.129-0.043,0.258-0.107,0.365-0.15C348.55,903.495,348.572,905.794,348.572,908.114z"/>
	<path fill="#D43F49" d="M348.486,891.788c-0.107-0.043-0.215-0.086-0.322-0.107c-7.282-1.998-13.791-1.633-21.288-0.902
		c-0.129,0.021-0.236,0.064-0.387,0.086c0.021-5.177,0-10.375,0-15.552c4.726,0.838,9.516,0.988,13.898-1.31
		c3.093-1.633,3.093-6.616,0-8.227c-4.382-2.298-9.172-2.148-13.898-1.332c-0.021-15.187-0.086-30.374-0.236-45.561
		c-0.193-18.065-0.322-36.152-0.408-54.218c6.487,0.73,13.898,1.611,19.29-1.611c1.504-0.924,2.255-2.47,2.255-4.038h0.924
		c-0.107,22.147-0.086,44.315-0.086,66.462C348.207,847.581,348.336,869.685,348.486,891.788z"/>
	<path fill="#D43F49" d="M348.035,702.456c0.086,13.576,0.494,27.152,0.387,40.405c-0.043,5.392-0.064,10.762-0.107,16.154h-0.924
		c0-1.568-0.752-3.115-2.255-4.038c-5.413-3.244-12.846-2.341-19.354-1.59c-0.021-4.404-0.064-8.807-0.086-13.211
		c-0.043-10.934-0.064-21.867-0.15-32.801c5.263,1.203,12.674,2.47,17.206-0.516c1.633-1.096,2.449-2.728,2.449-4.382
		L348.035,702.456z"/>
	<path fill="#D43F49" d="M349.56,663.039c-1.375,12.931-1.611,26.164-1.525,39.417l-2.835,0.021c0-1.654-0.816-3.308-2.449-4.382
		c-4.554-3.007-11.986-1.718-17.271-0.516c0-2.084,0.021-4.21,0.043-6.358c4.64,0.451,9.409,0.988,13.791-0.559
		c4.726-1.675,4.726-7.969,0-9.645c-4.361-1.547-9.108-1.01-13.748-0.558c-0.064-6.036-0.43-12.008-1.525-17.722
		c4.06-0.043,8.077-0.15,11.986-0.15C340.366,662.609,344.942,662.91,349.56,663.039z"/>
	<path d="M272.551,356.701c5.37,0.58,5.349,7.733,0,8.313c-11.943,1.332-23.908,1.547-35.916,1.482
		c-10.44-0.064-22.684,1.246-32.543-2.556c-3.029-1.181-3.029-4.984,0-6.165c9.881-3.802,22.061-2.492,32.543-2.556
		C248.643,355.154,260.608,355.369,272.551,356.701z"/>
	<path d="M175.909,969.377c6.144-1.719,8.506,7.411,2.599,9.452c-15.123,5.198-29.966,11.514-43.563,20.02
		c-1.869,1.16-8.786,5.521-7.218,8.829c0.902,1.869,6.38,2.277,8.163,2.556c4.124,0.687,8.549,0.451,12.566,1.761
		c4.941,1.611,3.63,8.12-1.181,8.635c-11.621,1.224-36.775-0.516-30.159-18.882c2.964-8.27,12.459-12.566,19.633-16.476
		C149.23,978.442,162.226,973.179,175.909,969.377z"/>
</g>
</svg>
